<?xml version="1.0" encoding="utf-8"?>
<!-- Generator: Adobe Illustrator 19.0.0, SVG Export Plug-In . SVG Version: 6.00 Build 0)  -->
<svg version="1.1" xmlns="http://www.w3.org/2000/svg" xmlns:xlink="http://www.w3.org/1999/xlink" x="0px" y="0px"
	 viewBox="0 0 105 169" style="enable-background:new 0 0 105 169;" xml:space="preserve">
<style type="text/css">
	.st0{fill:#1C97EA;}
</style>
<g id="Layer_1">
	<g id="XMLID_44_">
		<g id="XMLID_47_">
			<path id="XMLID_37_" class="st0" d="M97.5,113.2c-0.4-0.5-1.1-2.2-1.7-2.2h-5.6c-1.3-2-4.1-2.4-8.1-4.7c0.5-1.5,0.8-2.3,0.8-3.8
				c0-7.4-6-13.7-15.7-17.2c2.4-2.4,6.6-3.2,10.3-2.1c0.6,0.2,1.2,0.5,1.7,0.7c1,0.5,2.1,0.3,2.8-0.5c0.7-0.8,0.7-2,0.1-2.9
				c-2.7-3.6-7-6.3-12-7.8c-11.5-3.4-24.2,1-28.3,9.7c-0.3,0.7-0.6,1.4-0.8,2.1C29.6,87.6,22,94.9,22,103.1c0,1.5,0.3,1.7,0.8,3.2
				c-4.3,2.4-7.3,2.8-8.6,4.8H9.7c-0.7,0-1.3,1.7-1.7,2.2c-0.4,0.5-0.6,1.8-0.6,2.5l6.2,51.6c0.1,1.2,1.1,0.8,2.3,0.8h73.8
				c1.2,0,2.2,0.7,2.3-0.4l6.2-52.7C98.2,114.2,98,113.6,97.5,113.2z M26.8,109.4c0.6-0.3,1-0.1,1.2-0.7c0.2-0.6,0.1-0.9-0.2-1.5
				c-0.7-1.4-1.1-2.8-1.1-4.3c0-6.3,6.8-12,16.9-14.3c0.9-0.2,1.6-0.9,1.8-1.8c0.1-0.8,0.4-1.7,0.8-2.4c3.1-6.7,13.4-10,22.8-7.2
				c0,0,0,0,0,0c1,0.3,1,1.7,0,2c-3.2,1.2-5.9,3.4-7.3,6.4c-0.1,0.1-0.1,0.3-0.2,0.5c-0.2,0.6-0.2,1.3,0.1,1.9
				c0.3,0.6,0.8,1,1.5,1.2c9.3,2.5,15.2,8,15.2,14c0,1.5-0.4,3.1-1.1,4.5c-0.3,0.6-0.3,1.2-0.2,1.8c0.2,0.6,0.6-0.3,1.2,0
				c2.6,1.3,4.6,1.5,6.2,2.5H20.4C22,111,24.2,110.7,26.8,109.4z M92.7,120.2L87.6,165H17.9l-5.1-44.8c-0.2-1.8,1.2-4.2,3-4.2h74
				C91.5,116,92.9,118.4,92.7,120.2z"/>
		</g>
	</g>
</g>
<g id="Layer_2">
	<g id="XMLID_9_">
		<path id="XMLID_55_" class="st0" d="M773.4,11.9c-17.6-3.5-34.3,4.4-39.8,18.2c-0.3,0.2-1.3,3.7-1.2,3.8L721,148.4
			c0,0.1,0,0.3,0,0.4c-0.5,6.6,9.1,13.4,22.9,16.1c14.2,2.8,25.9-0.1,27.4-6.7l31.7-110.5c0-0.1,0-0.2,0.1-0.3
			C805.5,31.3,792.5,15.6,773.4,11.9z M736.4,42.5c0.4-3.4,4.4-5,7-2.8c6.9,5.9,15.9,15.5,20.1,28.1c-12.3,11.9-19.2,24.5-20.5,37.9
			c-0.8,7.4,0.3,14.4,2.3,20.6c-5.4,5.9-11.8,11.8-19.3,17.7L736.4,42.5z M744.5,160.7c-11.1-2.2-18.7-7.3-19.3-10.9
			c8.4-6.3,15.6-12.7,21.6-19c5.8,14.2,16.1,24.2,19.6,27.4C764.4,161.2,755.4,162.9,744.5,160.7z M795.4,55l-27.5,98.7
			c-6.4-6.2-23-24.7-20.7-47.5c2-19.5,16.9-37.6,44.5-54C793.6,50.9,796,52.7,795.4,55z M797.5,43.9c-12.2,6.6-22.5,13.5-30.6,20.7
			c-6.3-16.8-20.1-28.2-26.8-32.8c-1.2-0.9-1.5-2.5-0.7-3.7c6.1-9.6,19.3-14.7,33.2-12c14.5,2.9,25.1,13.3,26.4,25.1
			C799.1,42.3,798.5,43.4,797.5,43.9z"/>
	</g>
</g>
<g id="Layer_3">
	<g id="XMLID_18_">
		<path id="XMLID_27_" class="st0" d="M569.8,44h-0.5h-17.2l7.4-40c0.1-0.6,0-1.4-0.4-1.9c-0.3-0.5-0.9-0.9-1.5-1L550-0.4
			c-1.2-0.2-2.4,0.9-2.6,2.2L539.5,44h-60.1h-4.1c-1.3,0-3.4,0.3-3.4,1.5v13.6c0,1.3,1.6,2.3,2.8,2.3c1.6,0,3.3,1.3,3.4,2.9
			l5.9,99.5c0.1,1.2,1.2,3.2,2.4,3.2h72.3c1.2,0,2.2-2,2.3-3.2l5.8-98.7c0.1-1.3,1.2-2.1,2.5-2.1h0.5c1.3,0,2.2-2.6,2.2-3.9V45.5
			C572,44.3,571,44,569.8,44z M551.4,4.8l3.3,0.8L547.5,44h-3.4L551.4,4.8z M562.1,67.8l-5.5,94.2h-68l-5.5-94.2
			c-0.2-2.6,1.9-4.8,4.5-4.8h69.9C560.2,63,562.3,65.2,562.1,67.8z M566,59h-1.2h-84.4h-1H477V49h2.5h61.9h8H566V59z"/>
	</g>
</g>
<g id="Layer_4">
	<g id="XMLID_26_">
		<path id="XMLID_2_" class="st0" d="M316.2,131.6c-3.4-4.7-7.4-6.6-11.9-6.6c0,0,0,0,0,0c-5.6,0-10.2,3.4-12.8,5.9
			c-5.9-7.4-15.4-22.5-10.1-30.1c0.6-0.2,1.1-0.4,1.8-0.5c0.4,0,0.8-0.3,1.2-0.5c1-0.2,1.8-0.5,2.4-1c1.8-1.3,3.5-4.2,1.6-10.6
			c-1.2-4.2-3.8-9.1-7.1-13.8c-7.1-9.7-18.9-13-19.4-13.2c-0.7-0.2-1.5-0.1-2.1,0.4c-0.6,0.4-1,1.1-1,1.9c0,0.5-0.6,12.7,6.5,22.5
			c3.4,4.7,7.2,8.6,10.9,11c0.2,0.1,0.4,0.2,0.5,0.3c-9.5,6.3-10.1,24.8-9.9,32.8c-3.5-0.9-8.9-1.5-13.2,1.3c-4,2.6-6,7.4-6,14.3
			c0,12,9.8,21.8,21.8,21.8c6.1,0,11.6-2.5,15.6-6.6c3.9,3.1,8.7,4.8,13.6,4.8c4.5,0,9-1.4,12.9-4.2c4.7-3.5,7.8-8.3,8.6-14.1
			C321.1,141.8,319.7,136.3,316.2,131.6z M269.2,83.2c-3.9-5.4-5.1-12-5.5-15.9c3.6,1.5,9.5,4.7,13.4,10.1c3.1,4.2,5.3,8.5,6.4,12.2
			c1,3.4,0.6,5,0.2,5.2c-0.4,0.3-2,0.1-4.9-1.8C275.7,90.9,272.3,87.4,269.2,83.2z M269.4,162.8c-9.3,0-16.9-7.6-16.9-16.9
			c0-5.1,1.3-8.6,3.8-10.2c1.4-0.9,3.1-1.2,4.9-1.2c3,0,6,0.9,7.3,1.5c0,0,0,0,0,0c0.1,0,0.1,0,0.2,0.1c0.1,0,0.1,0,0.2,0.1
			c0.1,0,0.1,0,0.2,0c0.1,0,0.2,0,0.2,0c0,0,0,0,0.1,0c0.1,0,0.1,0,0.2,0c0,0,0,0,0,0c0.1,0,0.3,0,0.4-0.1c0,0,0,0,0.1,0
			c0,0,0,0,0,0c0.1,0,8.2-2.4,12.8,1c2.3,1.7,3.4,4.6,3.4,8.8C286.3,155.2,278.8,162.8,269.4,162.8z M286.3,133.5
			c-0.1-0.1-0.3-0.3-0.4-0.4c-4.5-3.3-10.6-3-14.2-2.4c-0.2-6.4,0.2-16.5,3.2-23.3c0.7,9.7,8.4,20.6,12.3,25.7
			C287,133.2,286.7,133.4,286.3,133.5z M315.3,146.6c-0.7,4.5-3.1,8.4-6.7,11.1c-6.3,4.6-14.8,4.2-20.6-0.4c2-3.3,3.2-7.2,3.2-11.4
			c0-3.3-0.6-6.1-1.8-8.4c1-0.4,1.9-0.6,2.4-0.8c0.6-0.1,1.1,0,1.4-0.5c0.1-0.1,5.2-6.3,10.9-6.3c0,0,0,0,0,0c2.8,0,5.5,1.2,7.9,4.5
			C314.9,138.2,316,142.1,315.3,146.6z"/>
	</g>
</g>
</svg>
