<?xml version="1.0" encoding="utf-8"?>
<!-- Generator: Adobe Illustrator 19.0.0, SVG Export Plug-In . SVG Version: 6.00 Build 0)  -->
<svg version="1.1" xmlns="http://www.w3.org/2000/svg" xmlns:xlink="http://www.w3.org/1999/xlink" x="0px" y="0px"
	 viewBox="0 0 114 168.4" style="enable-background:new 0 0 114 168.4;" xml:space="preserve">
<style type="text/css">
	.st0{fill:#1C97EA;}
</style>
<g id="Layer_1">
	<g id="XMLID_44_">
		<g id="XMLID_47_">
			<path id="XMLID_37_" class="st0" d="M-366.5,113.5c-0.4-0.5-1.1-2.2-1.7-2.2h-5.6c-1.3-2-4.1-2.4-8.1-4.7
				c0.5-1.5,0.8-2.3,0.8-3.8c0-7.4-6-13.7-15.7-17.2c2.4-2.4,6.6-3.2,10.3-2.1c0.6,0.2,1.2,0.5,1.7,0.7c1,0.5,2.1,0.3,2.8-0.5
				c0.7-0.8,0.7-2,0.1-2.9c-2.7-3.6-7-6.3-12-7.8c-11.5-3.4-24.2,1-28.3,9.7c-0.3,0.7-0.6,1.4-0.8,2.1c-11.5,3-19.1,10.3-19.1,18.5
				c0,1.5,0.3,1.7,0.8,3.2c-4.3,2.4-7.3,2.8-8.6,4.8h-4.6c-0.7,0-1.3,1.7-1.7,2.2c-0.4,0.5-0.6,1.8-0.6,2.5l6.2,51.6
				c0.1,1.2,1.1,0.8,2.3,0.8h73.8c1.2,0,2.2,0.7,2.3-0.4l6.2-52.7C-365.8,114.6-366,114-366.5,113.5z M-437.2,109.8
				c0.6-0.3,1-0.1,1.2-0.7c0.2-0.6,0.1-0.9-0.2-1.5c-0.7-1.4-1.1-2.8-1.1-4.3c0-6.3,6.8-12,16.9-14.3c0.9-0.2,1.6-0.9,1.8-1.8
				c0.1-0.8,0.4-1.7,0.8-2.4c3.1-6.7,13.4-10,22.8-7.2c0,0,0,0,0,0c1,0.3,1,1.7,0,2c-3.2,1.2-5.9,3.4-7.3,6.4
				c-0.1,0.1-0.1,0.3-0.2,0.5c-0.2,0.6-0.2,1.3,0.1,1.9c0.3,0.6,0.8,1,1.5,1.2c9.3,2.5,15.2,8,15.2,14c0,1.5-0.4,3.1-1.1,4.5
				c-0.3,0.6-0.3,1.2-0.2,1.8c0.2,0.6,0.6-0.3,1.2,0c2.6,1.3,4.6,1.5,6.2,2.5h-63.9C-442,111.4-439.8,111.1-437.2,109.8z
				 M-371.3,120.6l-5.1,44.8h-69.7l-5.1-44.8c-0.2-1.8,1.2-4.2,3-4.2h74C-372.5,116.4-371.1,118.8-371.3,120.6z"/>
		</g>
	</g>
</g>
<g id="Layer_2">
	<g id="XMLID_9_">
		<path id="XMLID_55_" class="st0" d="M309.4,12.3c-17.6-3.5-34.3,4.4-39.8,18.2c-0.3,0.2-1.3,3.7-1.2,3.8L257,148.8
			c0,0.1,0,0.3,0,0.4c-0.5,6.6,9.1,13.4,22.9,16.1c14.2,2.8,25.9-0.1,27.4-6.7l31.7-110.5c0-0.1,0-0.2,0.1-0.3
			C341.5,31.7,328.5,16,309.4,12.3z M272.4,42.9c0.4-3.4,4.4-5,7-2.8c6.9,5.9,15.9,15.5,20.1,28.1c-12.3,11.9-19.2,24.5-20.5,37.9
			c-0.8,7.4,0.3,14.4,2.3,20.6c-5.4,5.9-11.8,11.8-19.3,17.7L272.4,42.9z M280.5,161.1c-11.1-2.2-18.7-7.3-19.3-10.9
			c8.4-6.3,15.6-12.7,21.6-19c5.8,14.2,16.1,24.2,19.6,27.4C300.4,161.6,291.4,163.3,280.5,161.1z M331.4,55.4L303.9,154
			c-6.4-6.2-23-24.7-20.7-47.5c2-19.5,16.9-37.6,44.5-54C329.6,51.3,332,53.1,331.4,55.4z M333.5,44.3C321.3,50.9,311,57.8,302.9,65
			c-6.3-16.8-20.1-28.2-26.8-32.8c-1.2-0.9-1.5-2.5-0.7-3.7c6.1-9.6,19.3-14.7,33.2-12c14.5,2.9,25.1,13.3,26.4,25.1
			C335.1,42.7,334.5,43.8,333.5,44.3z"/>
	</g>
</g>
<g id="Layer_3">
	<g id="XMLID_18_">
		<path id="XMLID_27_" class="st0" d="M105.8,44.4h-0.5H88.1l7.4-40c0.1-0.6,0-1.4-0.4-1.9c-0.3-0.5-0.9-0.9-1.5-1L86,0
			c-1.2-0.2-2.4,0.9-2.6,2.2l-7.8,42.2H15.5h-4.1c-1.3,0-3.4,0.3-3.4,1.5v13.6c0,1.3,1.6,2.3,2.8,2.3c1.6,0,3.3,1.3,3.4,2.9
			l5.9,99.5c0.1,1.2,1.2,3.2,2.4,3.2h72.3c1.2,0,2.2-2,2.3-3.2l5.8-98.7c0.1-1.3,1.2-2.1,2.5-2.1h0.5c1.3,0,2.2-2.6,2.2-3.9V45.9
			C108,44.7,107,44.4,105.8,44.4z M87.4,5.2L90.7,6l-7.2,38.4h-3.4L87.4,5.2z M98.1,68.2l-5.5,94.2h-68l-5.5-94.2
			c-0.2-2.6,1.9-4.8,4.5-4.8h69.9C96.2,63.4,98.3,65.6,98.1,68.2z M102,59.4h-1.2H16.5h-1H13v-10h2.5h61.9h8H102V59.4z"/>
	</g>
</g>
<g id="Layer_4">
	<g id="XMLID_26_">
		<path id="XMLID_2_" class="st0" d="M-147.8,132c-3.4-4.7-7.4-6.6-11.9-6.6c0,0,0,0,0,0c-5.6,0-10.2,3.4-12.8,5.9
			c-5.9-7.4-15.4-22.5-10.1-30.1c0.6-0.2,1.1-0.4,1.8-0.5c0.4,0,0.8-0.3,1.2-0.5c1-0.2,1.8-0.5,2.4-1c1.8-1.3,3.5-4.2,1.6-10.6
			c-1.2-4.2-3.8-9.1-7.1-13.8c-7.1-9.7-18.9-13-19.4-13.2c-0.7-0.2-1.5-0.1-2.1,0.4c-0.6,0.4-1,1.1-1,1.9c0,0.5-0.6,12.7,6.5,22.5
			c3.4,4.7,7.2,8.6,10.9,11c0.2,0.1,0.4,0.2,0.5,0.3c-9.5,6.3-10.1,24.8-9.9,32.8c-3.5-0.9-8.9-1.5-13.2,1.3c-4,2.6-6,7.4-6,14.3
			c0,12,9.8,21.8,21.8,21.8c6.1,0,11.6-2.5,15.6-6.6c3.9,3.1,8.7,4.8,13.6,4.8c4.5,0,9-1.4,12.9-4.2c4.7-3.5,7.8-8.3,8.6-14.1
			C-142.9,142.2-144.3,136.7-147.8,132z M-194.8,83.6c-3.9-5.4-5.1-12-5.5-15.9c3.6,1.5,9.5,4.7,13.4,10.1c3.1,4.2,5.3,8.5,6.4,12.2
			c1,3.4,0.6,5,0.2,5.2c-0.4,0.3-2,0.1-4.9-1.8C-188.3,91.3-191.7,87.8-194.8,83.6z M-194.6,163.2c-9.3,0-16.9-7.6-16.9-16.9
			c0-5.1,1.3-8.6,3.8-10.2c1.4-0.9,3.1-1.2,4.9-1.2c3,0,6,0.9,7.3,1.5c0,0,0,0,0,0c0.1,0,0.1,0,0.2,0.1c0.1,0,0.1,0,0.2,0.1
			c0.1,0,0.1,0,0.2,0c0.1,0,0.2,0,0.2,0c0,0,0,0,0.1,0c0.1,0,0.1,0,0.2,0c0,0,0,0,0,0c0.1,0,0.3,0,0.4-0.1c0,0,0,0,0.1,0
			c0,0,0,0,0,0c0.1,0,8.2-2.4,12.8,1c2.3,1.7,3.4,4.6,3.4,8.8C-177.7,155.6-185.2,163.2-194.6,163.2z M-177.7,133.9
			c-0.1-0.1-0.3-0.3-0.4-0.4c-4.5-3.3-10.6-3-14.2-2.4c-0.2-6.4,0.2-16.5,3.2-23.3c0.7,9.7,8.4,20.6,12.3,25.7
			C-177,133.6-177.3,133.8-177.7,133.9z M-148.7,147c-0.7,4.5-3.1,8.4-6.7,11.1c-6.3,4.6-14.8,4.2-20.6-0.4c2-3.3,3.2-7.2,3.2-11.4
			c0-3.3-0.6-6.1-1.8-8.4c1-0.4,1.9-0.6,2.4-0.8c0.6-0.1,1.1,0,1.4-0.5c0.1-0.1,5.2-6.3,10.9-6.3c0,0,0,0,0,0c2.8,0,5.5,1.2,7.9,4.5
			C-149.1,138.6-148,142.5-148.7,147z"/>
	</g>
</g>
</svg>
